<mxfile host="app.diagrams.net" modified="2022-05-09T11:01:43.656Z" agent="5.0 (Windows NT 10.0; Win64; x64) AppleWebKit/537.36 (KHTML, like Gecko) Chrome/101.0.4951.54 Safari/537.36" etag="KgyLTIsZgbdvIEWXcgJm" version="18.0.2" type="github">
  <diagram id="8nb6uxkqt9T0Qr9a_KWJ" name="Page-1">
    <mxGraphModel dx="1038" dy="481" grid="1" gridSize="10" guides="1" tooltips="1" connect="1" arrows="1" fold="1" page="1" pageScale="1" pageWidth="850" pageHeight="1100" math="0" shadow="0">
      <root>
        <mxCell id="0" />
        <mxCell id="1" parent="0" />
        <mxCell id="aJy5R1yDoCPlFdGjqmav-4" value="" style="edgeStyle=orthogonalEdgeStyle;rounded=0;orthogonalLoop=1;jettySize=auto;html=1;entryX=0.5;entryY=0;entryDx=0;entryDy=0;" edge="1" parent="1" source="aJy5R1yDoCPlFdGjqmav-1" target="aJy5R1yDoCPlFdGjqmav-3">
          <mxGeometry relative="1" as="geometry">
            <mxPoint x="560" y="80" as="targetPoint" />
          </mxGeometry>
        </mxCell>
        <mxCell id="aJy5R1yDoCPlFdGjqmav-7" value="" style="edgeStyle=orthogonalEdgeStyle;rounded=0;orthogonalLoop=1;jettySize=auto;html=1;" edge="1" parent="1" source="aJy5R1yDoCPlFdGjqmav-1" target="aJy5R1yDoCPlFdGjqmav-6">
          <mxGeometry relative="1" as="geometry" />
        </mxCell>
        <mxCell id="aJy5R1yDoCPlFdGjqmav-1" value="פתיחת האפליקציה" style="rounded=0;whiteSpace=wrap;html=1;" vertex="1" parent="1">
          <mxGeometry x="340" y="30" width="120" height="60" as="geometry" />
        </mxCell>
        <mxCell id="aJy5R1yDoCPlFdGjqmav-8" style="edgeStyle=orthogonalEdgeStyle;rounded=0;orthogonalLoop=1;jettySize=auto;html=1;entryX=1;entryY=0.5;entryDx=0;entryDy=0;" edge="1" parent="1" source="aJy5R1yDoCPlFdGjqmav-3" target="aJy5R1yDoCPlFdGjqmav-6">
          <mxGeometry relative="1" as="geometry" />
        </mxCell>
        <mxCell id="aJy5R1yDoCPlFdGjqmav-3" value="אם לא קיים משתמש פתיחת דף הרשמה" style="whiteSpace=wrap;html=1;rounded=0;" vertex="1" parent="1">
          <mxGeometry x="510" y="110" width="110" height="60" as="geometry" />
        </mxCell>
        <mxCell id="aJy5R1yDoCPlFdGjqmav-10" value="" style="edgeStyle=orthogonalEdgeStyle;rounded=0;orthogonalLoop=1;jettySize=auto;html=1;" edge="1" parent="1" source="aJy5R1yDoCPlFdGjqmav-6" target="aJy5R1yDoCPlFdGjqmav-9">
          <mxGeometry relative="1" as="geometry" />
        </mxCell>
        <mxCell id="aJy5R1yDoCPlFdGjqmav-6" value="אם קיים משתמש פתיחת דף כניסה" style="whiteSpace=wrap;html=1;rounded=0;" vertex="1" parent="1">
          <mxGeometry x="340" y="110" width="120" height="60" as="geometry" />
        </mxCell>
        <mxCell id="aJy5R1yDoCPlFdGjqmav-12" value="" style="edgeStyle=orthogonalEdgeStyle;rounded=0;orthogonalLoop=1;jettySize=auto;html=1;" edge="1" parent="1" source="aJy5R1yDoCPlFdGjqmav-9" target="aJy5R1yDoCPlFdGjqmav-11">
          <mxGeometry relative="1" as="geometry" />
        </mxCell>
        <mxCell id="aJy5R1yDoCPlFdGjqmav-9" value="פתיחת דף חסימות" style="whiteSpace=wrap;html=1;rounded=0;" vertex="1" parent="1">
          <mxGeometry x="340" y="210" width="120" height="60" as="geometry" />
        </mxCell>
        <mxCell id="aJy5R1yDoCPlFdGjqmav-13" style="edgeStyle=orthogonalEdgeStyle;rounded=0;orthogonalLoop=1;jettySize=auto;html=1;entryX=0;entryY=0.5;entryDx=0;entryDy=0;" edge="1" parent="1" source="aJy5R1yDoCPlFdGjqmav-11" target="aJy5R1yDoCPlFdGjqmav-6">
          <mxGeometry relative="1" as="geometry">
            <Array as="points">
              <mxPoint x="320" y="360" />
              <mxPoint x="320" y="140" />
            </Array>
          </mxGeometry>
        </mxCell>
        <mxCell id="aJy5R1yDoCPlFdGjqmav-15" style="edgeStyle=orthogonalEdgeStyle;rounded=0;orthogonalLoop=1;jettySize=auto;html=1;entryX=1;entryY=0.5;entryDx=0;entryDy=0;" edge="1" parent="1" source="aJy5R1yDoCPlFdGjqmav-11" target="aJy5R1yDoCPlFdGjqmav-3">
          <mxGeometry relative="1" as="geometry" />
        </mxCell>
        <mxCell id="aJy5R1yDoCPlFdGjqmav-11" value="דף מחיקת משתמש" style="whiteSpace=wrap;html=1;rounded=0;" vertex="1" parent="1">
          <mxGeometry x="340" y="330" width="120" height="60" as="geometry" />
        </mxCell>
      </root>
    </mxGraphModel>
  </diagram>
</mxfile>
